<svg width="1080" height="1080" viewBox="0 0 1080 1080" fill="none" xmlns="http://www.w3.org/2000/svg">
<path d="M672 42.424C-103.962 504.002 1086.57 411.835 491.5 842.5C900.214 448.481 -199.765 439.9 672 42.424Z" fill="#05DF72" stroke="#05DF72" stroke-width="12"/>
<path d="M709.765 20C40.3575 448.791 1085.35 413.538 489.962 844.248C955.5 398 -109.172 409.51 709.765 20Z" fill="#37A2AD" stroke="#37A2AD" stroke-width="12"/>
<path d="M178.912 999.544C179.83 999.544 180.632 999.917 181.32 1000.66L187.942 1007.8C182.897 1013.65 176.762 1018.21 169.538 1021.47C162.372 1024.74 153.686 1026.38 143.48 1026.38C134.651 1026.38 126.624 1024.86 119.4 1021.82C112.176 1018.72 106.013 1014.42 100.91 1008.92C95.8075 1003.36 91.8515 996.706 89.0422 988.966C86.2329 981.226 84.8282 972.712 84.8282 963.424C84.8282 954.136 86.2902 945.622 89.2142 937.882C92.1382 930.142 96.2375 923.491 101.512 917.93C106.844 912.369 113.208 908.069 120.604 905.03C128 901.934 136.17 900.386 145.114 900.386C153.886 900.386 161.626 901.791 168.334 904.6C175.042 907.409 180.948 911.222 186.05 916.038L180.546 923.692C180.202 924.265 179.744 924.753 179.17 925.154C178.654 925.498 177.938 925.67 177.02 925.67C175.988 925.67 174.727 925.125 173.236 924.036C171.746 922.889 169.796 921.628 167.388 920.252C164.98 918.876 161.97 917.643 158.358 916.554C154.746 915.407 150.303 914.834 145.028 914.834C138.664 914.834 132.845 915.952 127.57 918.188C122.296 920.367 117.738 923.549 113.896 927.734C110.112 931.919 107.16 937.022 105.038 943.042C102.917 949.062 101.856 955.856 101.856 963.424C101.856 971.107 102.946 977.958 105.124 983.978C107.36 989.998 110.37 995.101 114.154 999.286C117.996 1003.41 122.496 1006.57 127.656 1008.75C132.874 1010.92 138.492 1012.01 144.512 1012.01C148.182 1012.01 151.478 1011.81 154.402 1011.41C157.384 1010.95 160.107 1010.27 162.572 1009.35C165.095 1008.43 167.417 1007.28 169.538 1005.91C171.717 1004.47 173.867 1002.78 175.988 1000.83C176.963 999.974 177.938 999.544 178.912 999.544ZM219.499 898.322V1025H204.191V898.322H219.499ZM302.631 971.938C302.631 968.383 302.115 965.144 301.083 962.22C300.109 959.239 298.647 956.687 296.697 954.566C294.805 952.387 292.483 950.725 289.731 949.578C286.979 948.374 283.855 947.772 280.357 947.772C273.019 947.772 267.199 949.922 262.899 954.222C258.657 958.465 256.019 964.37 254.987 971.938H302.631ZM315.015 1012.79C313.123 1015.08 310.859 1017.09 308.221 1018.81C305.584 1020.47 302.746 1021.85 299.707 1022.94C296.726 1024.03 293.63 1024.83 290.419 1025.34C287.209 1025.92 284.027 1026.2 280.873 1026.2C274.853 1026.2 269.292 1025.2 264.189 1023.19C259.144 1021.13 254.758 1018.15 251.031 1014.25C247.362 1010.29 244.495 1005.42 242.431 999.63C240.367 993.839 239.335 987.189 239.335 979.678C239.335 973.601 240.253 967.925 242.087 962.65C243.979 957.375 246.674 952.817 250.171 948.976C253.669 945.077 257.94 942.039 262.985 939.86C268.031 937.624 273.707 936.506 280.013 936.506C285.231 936.506 290.047 937.395 294.461 939.172C298.933 940.892 302.775 943.415 305.985 946.74C309.253 950.008 311.805 954.079 313.639 958.952C315.474 963.768 316.391 969.272 316.391 975.464C316.391 977.872 316.133 979.477 315.617 980.28C315.101 981.083 314.127 981.484 312.693 981.484H254.471C254.643 986.988 255.389 991.775 256.707 995.846C258.083 999.917 259.975 1003.33 262.383 1006.08C264.791 1008.77 267.658 1010.81 270.983 1012.19C274.309 1013.5 278.035 1014.16 282.163 1014.16C286.005 1014.16 289.301 1013.73 292.053 1012.87C294.863 1011.96 297.271 1010.98 299.277 1009.95C301.284 1008.92 302.947 1007.97 304.265 1007.11C305.641 1006.19 306.817 1005.74 307.791 1005.74C309.053 1005.74 310.027 1006.22 310.715 1007.2L315.015 1012.79ZM382.408 985.784C375.356 986.013 369.336 986.587 364.348 987.504C359.418 988.364 355.376 989.511 352.222 990.944C349.126 992.377 346.862 994.069 345.428 996.018C344.052 997.967 343.364 1000.15 343.364 1002.55C343.364 1004.85 343.737 1006.83 344.482 1008.49C345.228 1010.15 346.231 1011.53 347.492 1012.62C348.811 1013.65 350.33 1014.42 352.05 1014.94C353.828 1015.4 355.72 1015.63 357.726 1015.63C360.421 1015.63 362.886 1015.37 365.122 1014.85C367.358 1014.28 369.451 1013.48 371.4 1012.44C373.407 1011.41 375.299 1010.18 377.076 1008.75C378.911 1007.31 380.688 1005.68 382.408 1003.84V985.784ZM332.958 950.18C337.774 945.536 342.963 942.067 348.524 939.774C354.086 937.481 360.249 936.334 367.014 936.334C371.888 936.334 376.216 937.137 380 938.742C383.784 940.347 386.966 942.583 389.546 945.45C392.126 948.317 394.076 951.785 395.394 955.856C396.713 959.927 397.372 964.399 397.372 969.272V1025H390.578C389.088 1025 387.941 1024.77 387.138 1024.31C386.336 1023.8 385.705 1022.82 385.246 1021.39L383.526 1013.13C381.233 1015.25 378.997 1017.15 376.818 1018.81C374.64 1020.41 372.346 1021.79 369.938 1022.94C367.53 1024.03 364.95 1024.86 362.198 1025.43C359.504 1026.06 356.494 1026.38 353.168 1026.38C349.786 1026.38 346.604 1025.92 343.622 1025C340.641 1024.03 338.032 1022.59 335.796 1020.7C333.618 1018.81 331.869 1016.43 330.55 1013.56C329.289 1010.64 328.658 1007.2 328.658 1003.24C328.658 999.802 329.604 996.505 331.496 993.352C333.388 990.141 336.456 987.303 340.698 984.838C344.941 982.373 350.474 980.366 357.296 978.818C364.119 977.213 372.49 976.295 382.408 976.066V969.272C382.408 962.507 380.946 957.404 378.022 953.964C375.098 950.467 370.827 948.718 365.208 948.718C361.424 948.718 358.242 949.205 355.662 950.18C353.14 951.097 350.932 952.158 349.04 953.362C347.206 954.509 345.6 955.569 344.224 956.544C342.906 957.461 341.587 957.92 340.268 957.92C339.236 957.92 338.348 957.662 337.602 957.146C336.857 956.573 336.226 955.885 335.71 955.082L332.958 950.18ZM435.224 955.34C437.976 949.377 441.359 944.733 445.372 941.408C449.386 938.025 454.288 936.334 460.078 936.334C461.913 936.334 463.662 936.535 465.324 936.936C467.044 937.337 468.564 937.968 469.882 938.828L468.764 950.266C468.42 951.699 467.56 952.416 466.184 952.416C465.382 952.416 464.206 952.244 462.658 951.9C461.11 951.556 459.362 951.384 457.412 951.384C454.66 951.384 452.195 951.785 450.016 952.588C447.895 953.391 445.974 954.595 444.254 956.2C442.592 957.748 441.072 959.697 439.696 962.048C438.378 964.341 437.174 966.979 436.084 969.96V1025H420.69V937.882H429.462C431.125 937.882 432.272 938.197 432.902 938.828C433.533 939.459 433.963 940.548 434.192 942.096L435.224 955.34ZM627.113 901.762V1025H618.771C617.453 1025 616.335 1024.77 615.417 1024.31C614.557 1023.85 613.697 1023.08 612.837 1021.99L541.543 929.11C541.658 930.543 541.744 931.948 541.801 933.324C541.859 934.7 541.887 935.99 541.887 937.194V1025H527.267V901.762H535.867C536.613 901.762 537.243 901.819 537.759 901.934C538.275 901.991 538.734 902.135 539.135 902.364C539.537 902.536 539.938 902.823 540.339 903.224C540.741 903.568 541.171 904.027 541.629 904.6L612.923 997.394C612.809 995.903 612.694 994.47 612.579 993.094C612.522 991.661 612.493 990.313 612.493 989.052V901.762H627.113ZM689.041 936.506C695.405 936.506 701.139 937.567 706.241 939.688C711.344 941.809 715.701 944.819 719.313 948.718C722.925 952.617 725.677 957.347 727.569 962.908C729.519 968.412 730.493 974.575 730.493 981.398C730.493 988.278 729.519 994.47 727.569 999.974C725.677 1005.48 722.925 1010.18 719.313 1014.08C715.701 1017.98 711.344 1020.99 706.241 1023.11C701.139 1025.17 695.405 1026.2 689.041 1026.2C682.62 1026.2 676.829 1025.17 671.669 1023.11C666.567 1020.99 662.209 1017.98 658.597 1014.08C654.985 1010.18 652.205 1005.48 650.255 999.974C648.363 994.47 647.417 988.278 647.417 981.398C647.417 974.575 648.363 968.412 650.255 962.908C652.205 957.347 654.985 952.617 658.597 948.718C662.209 944.819 666.567 941.809 671.669 939.688C676.829 937.567 682.62 936.506 689.041 936.506ZM689.041 1014.25C697.641 1014.25 704.063 1011.38 708.305 1005.65C712.548 999.859 714.669 991.804 714.669 981.484C714.669 971.107 712.548 963.023 708.305 957.232C704.063 951.441 697.641 948.546 689.041 948.546C684.684 948.546 680.871 949.291 677.603 950.782C674.393 952.273 671.698 954.423 669.519 957.232C667.398 960.041 665.793 963.51 664.703 967.638C663.671 971.709 663.155 976.324 663.155 981.484C663.155 991.804 665.277 999.859 669.519 1005.65C673.819 1011.38 680.327 1014.25 689.041 1014.25ZM775.143 1026.38C768.263 1026.38 762.96 1024.46 759.233 1020.61C755.564 1016.77 753.729 1011.24 753.729 1004.02V950.696H743.237C742.32 950.696 741.546 950.438 740.915 949.922C740.285 949.349 739.969 948.489 739.969 947.342V941.236L754.245 939.43L757.771 912.512C757.943 911.652 758.316 910.964 758.889 910.448C759.52 909.875 760.323 909.588 761.297 909.588H769.037V939.602H794.235V950.696H769.037V1002.98C769.037 1006.65 769.926 1009.38 771.703 1011.15C773.481 1012.93 775.774 1013.82 778.583 1013.82C780.189 1013.82 781.565 1013.62 782.711 1013.22C783.915 1012.76 784.947 1012.27 785.807 1011.76C786.667 1011.24 787.384 1010.78 787.957 1010.38C788.588 1009.92 789.133 1009.69 789.591 1009.69C790.394 1009.69 791.111 1010.18 791.741 1011.15L796.213 1018.46C793.576 1020.93 790.394 1022.88 786.667 1024.31C782.941 1025.69 779.099 1026.38 775.143 1026.38ZM867.846 971.938C867.846 968.383 867.33 965.144 866.298 962.22C865.323 959.239 863.861 956.687 861.912 954.566C860.02 952.387 857.698 950.725 854.946 949.578C852.194 948.374 849.069 947.772 845.572 947.772C838.233 947.772 832.414 949.922 828.114 954.222C823.871 958.465 821.234 964.37 820.202 971.938H867.846ZM880.23 1012.79C878.338 1015.08 876.073 1017.09 873.436 1018.81C870.799 1020.47 867.961 1021.85 864.922 1022.94C861.941 1024.03 858.845 1024.83 855.634 1025.34C852.423 1025.92 849.241 1026.2 846.088 1026.2C840.068 1026.2 834.507 1025.2 829.404 1023.19C824.359 1021.13 819.973 1018.15 816.246 1014.25C812.577 1010.29 809.71 1005.42 807.646 999.63C805.582 993.839 804.55 987.189 804.55 979.678C804.55 973.601 805.467 967.925 807.302 962.65C809.194 957.375 811.889 952.817 815.386 948.976C818.883 945.077 823.155 942.039 828.2 939.86C833.245 937.624 838.921 936.506 845.228 936.506C850.445 936.506 855.261 937.395 859.676 939.172C864.148 940.892 867.989 943.415 871.2 946.74C874.468 950.008 877.019 954.079 878.854 958.952C880.689 963.768 881.606 969.272 881.606 975.464C881.606 977.872 881.348 979.477 880.832 980.28C880.316 981.083 879.341 981.484 877.908 981.484H819.686C819.858 986.988 820.603 991.775 821.922 995.846C823.298 999.917 825.19 1003.33 827.598 1006.08C830.006 1008.77 832.873 1010.81 836.198 1012.19C839.523 1013.5 843.25 1014.16 847.378 1014.16C851.219 1014.16 854.516 1013.73 857.268 1012.87C860.077 1011.96 862.485 1010.98 864.492 1009.95C866.499 1008.92 868.161 1007.97 869.48 1007.11C870.856 1006.19 872.031 1005.74 873.006 1005.74C874.267 1005.74 875.242 1006.22 875.93 1007.2L880.23 1012.79ZM951.149 952.244C950.461 953.505 949.401 954.136 947.967 954.136C947.107 954.136 946.133 953.821 945.043 953.19C943.954 952.559 942.607 951.871 941.001 951.126C939.453 950.323 937.59 949.607 935.411 948.976C933.233 948.288 930.653 947.944 927.671 947.944C925.091 947.944 922.769 948.288 920.705 948.976C918.641 949.607 916.864 950.495 915.373 951.642C913.94 952.789 912.822 954.136 912.019 955.684C911.274 957.175 910.901 958.809 910.901 960.586C910.901 962.822 911.532 964.685 912.793 966.176C914.112 967.667 915.832 968.957 917.953 970.046C920.075 971.135 922.483 972.11 925.177 972.97C927.872 973.773 930.624 974.661 933.433 975.636C936.3 976.553 939.081 977.585 941.775 978.732C944.47 979.879 946.878 981.312 948.999 983.032C951.121 984.752 952.812 986.873 954.073 989.396C955.392 991.861 956.051 994.843 956.051 998.34C956.051 1002.35 955.335 1006.08 953.901 1009.52C952.468 1012.9 950.347 1015.86 947.537 1018.38C944.728 1020.84 941.288 1022.79 937.217 1024.23C933.147 1025.66 928.445 1026.38 923.113 1026.38C917.036 1026.38 911.532 1025.4 906.601 1023.45C901.671 1021.45 897.485 1018.89 894.045 1015.8L897.657 1009.95C898.116 1009.2 898.661 1008.63 899.291 1008.23C899.922 1007.83 900.725 1007.63 901.699 1007.63C902.731 1007.63 903.821 1008.03 904.967 1008.83C906.114 1009.63 907.49 1010.52 909.095 1011.5C910.758 1012.47 912.765 1013.36 915.115 1014.16C917.466 1014.97 920.39 1015.37 923.887 1015.37C926.869 1015.37 929.477 1015 931.713 1014.25C933.949 1013.45 935.813 1012.39 937.303 1011.07C938.794 1009.75 939.883 1008.23 940.571 1006.51C941.317 1004.79 941.689 1002.96 941.689 1001.01C941.689 998.598 941.03 996.62 939.711 995.072C938.45 993.467 936.759 992.119 934.637 991.03C932.516 989.883 930.079 988.909 927.327 988.106C924.633 987.246 921.852 986.357 918.985 985.44C916.176 984.523 913.395 983.491 910.643 982.344C907.949 981.14 905.541 979.649 903.419 977.872C901.298 976.095 899.578 973.916 898.259 971.336C896.998 968.699 896.367 965.517 896.367 961.79C896.367 958.465 897.055 955.283 898.431 952.244C899.807 949.148 901.814 946.453 904.451 944.16C907.089 941.809 910.328 939.946 914.169 938.57C918.011 937.194 922.397 936.506 927.327 936.506C933.061 936.506 938.192 937.423 942.721 939.258C947.308 941.035 951.264 943.501 954.589 946.654L951.149 952.244ZM972.239 1015.54C972.239 1014.05 972.497 1012.64 973.013 1011.33C973.587 1010.01 974.332 1008.86 975.249 1007.89C976.224 1006.91 977.371 1006.14 978.689 1005.56C980.008 1004.99 981.413 1004.7 982.903 1004.7C984.394 1004.7 985.799 1004.99 987.117 1005.56C988.436 1006.14 989.583 1006.91 990.557 1007.89C991.532 1008.86 992.306 1010.01 992.879 1011.33C993.453 1012.64 993.739 1014.05 993.739 1015.54C993.739 1017.09 993.453 1018.52 992.879 1019.84C992.306 1021.1 991.532 1022.22 990.557 1023.19C989.583 1024.17 988.436 1024.91 987.117 1025.43C985.799 1026 984.394 1026.29 982.903 1026.29C981.413 1026.29 980.008 1026 978.689 1025.43C977.371 1024.91 976.224 1024.17 975.249 1023.19C974.332 1022.22 973.587 1021.1 973.013 1019.84C972.497 1018.52 972.239 1017.09 972.239 1015.54Z" fill="#37A2AD"/>
</svg>
